<svg xmlns="http://www.w3.org/2000/svg" viewBox="0 0 100 100" width="100" height="100" role="img" aria-label="22 Lights On flame">
  <defs>
    <radialGradient id="bg" cx="50%" cy="40%" r="70%">
      <stop offset="0%" stop-color="#2c2411"/>
      <stop offset="100%" stop-color="#111017"/>
    </radialGradient>
    <linearGradient id="flame" x1="0" y1="0" x2="0" y2="1">
      <stop offset="0%" stop-color="#FFE8A3"/>
      <stop offset="45%" stop-color="#F2C14E"/>
      <stop offset="100%" stop-color="#E1841F"/>
    </linearGradient>
    <linearGradient id="core" x1="0" y1="0" x2="0" y2="1">
      <stop offset="0%" stop-color="#FFF6DE"/>
      <stop offset="100%" stop-color="#FFD98A"/>
    </linearGradient>
    <filter id="glow" x="-60%" y="-60%" width="220%" height="220%">
      <feGaussianBlur stdDeviation="2.2" result="b"/>
      <feMerge><feMergeNode in="b"/><feMergeNode in="SourceGraphic"/></feMerge>
    </filter>
  </defs>
  <circle cx="50" cy="50" r="48.5" fill="url(#bg)" stroke="#E39B2F" stroke-width="2.2"/>
  <g filter="url(#glow)">
    <path d="M50 17 C61 33 71 45 68.5 60 C66.5 73.5 59 83 50 83 C41 83 33.5 73.5 31.5 60 C29 45 39 33 50 17 Z" fill="url(#flame)"/>
    <path d="M50 39 C56.5 48 61.5 55 60.5 63.5 C59.5 72 55 77 50 77 C45 77 40.5 72 39.5 63.5 C38.5 55 43.5 48 50 39 Z" fill="url(#core)"/>
  </g>
</svg>